# xmcd
#
# Track frame offsets:
#	150
#	19877
#	31985
#	52492
#	77731
#	98882
#	116808
#	136873
#	147278
#	174838
#	198895
#
# Disc length: 2958 seconds
#
# Revision: 1
# Processed by: cddbd v1.5.2PL0 Copyright (c) Steve Scherf et al.
# Submitted via: audiograbber 1.83.01
#
DISCID=950b8c0b
DTITLE=The Robert Cray Band - In my soul
DYEAR=1900
DGENRE=
TTITLE0=You Move me
TTITLE1=Nobody's Fault but Mine
TTITLE2=Fine Yesterday
TTITLE3=Your Good Thing Is About To End
TTITLE4=I Guess I'll Never Know
TTITLE5=Hold On
TTITLE6=What Would You Say
TTITLE7=Hip Tight Onions
TTITLE8=You're Everything
TTITLE9=Deep In My Soul
TTITLE10=Pillow
EXTD=
EXTT0=
EXTT1=
EXTT2=
EXTT3=
EXTT4=
EXTT5=
EXTT6=
EXTT7=
EXTT8=
EXTT9=
EXTT10=
PLAYORDER=
